<?xml version="1.0" standalone="no"?>
<!DOCTYPE svg PUBLIC "-//W3C//DTD SVG 20010904//EN"
 "http://www.w3.org/TR/2001/REC-SVG-20010904/DTD/svg10.dtd">
<svg version="1.0" xmlns="http://www.w3.org/2000/svg"
 width="96.000000pt" height="96.000000pt" viewBox="0 0 96.000000 96.000000"
 preserveAspectRatio="xMidYMid meet">
<metadata>
Created by potrace 1.14, written by Peter Selinger 2001-2017
</metadata>
<g transform="translate(0.000000,96.000000) scale(0.100000,-0.100000)"
fill="#000000" stroke="none">
<path d="M145 814 l-25 -27 0 -299 c0 -322 4 -349 52 -362 13 -3 121 -6 241
-6 237 0 227 -3 211 58 -6 21 -11 22 -95 22 l-89 0 0 160 0 160 70 0 70 0 0
40 0 40 -70 0 -70 0 0 80 0 80 160 0 160 0 0 -40 c0 -35 17 -90 55 -175 7 -16
16 -37 18 -45 3 -8 6 49 6 128 1 156 -9 194 -51 206 -13 3 -157 6 -321 6
l-298 0 -24 -26z m215 -134 l0 -80 -80 0 -80 0 0 80 0 80 80 0 80 0 0 -80z m0
-220 l0 -60 -80 0 -80 0 0 60 0 60 80 0 80 0 0 -60z m0 -200 l0 -60 -80 0 -80
0 0 60 0 60 80 0 80 0 0 -60z"/>
<path d="M672 722 c-9 -6 -5 -29 19 -98 77 -222 191 -551 196 -566 11 -35 73
-13 68 24 -3 30 -256 648 -264 648 -3 0 -12 -4 -19 -8z"/>
<path d="M605 678 c19 -161 35 -290 40 -333 3 -27 8 -66 10 -85 3 -19 7 -60
10 -90 16 -145 23 -170 48 -170 49 0 54 21 32 130 -3 14 -8 39 -10 55 -22 125
-86 485 -91 508 -4 18 -12 27 -25 27 -17 0 -19 -5 -14 -42z"/>
</g>
</svg>
